<?xml version="1.0" encoding="UTF-8"?>
<svg id="Layer_1" data-name="Layer 1" xmlns="http://www.w3.org/2000/svg" viewBox="0 0 318.75 176.95">
  <defs>
    <style>
      .cls-1 {
        fill: currentColor;
      }

      .cls-2 {
        fill: currentColor;
        opacity: 0.8;
      }
    </style>
  </defs>
  <g>
    <path class="cls-1" d="M263.35,58.85v-21.49h-42.22l-11.95,11.95v47.91l11.95,11.95h39.81v7.06h-67.66v-35.96h-23.9v47.91l11.95,11.95h91.57l11.95-11.95V58.85h-21.5ZM260.94,85.27h-27.86v-24.01h27.86v24.01Z"/>
    <path class="cls-1" d="M148.06,116.23v-35.96l-11.95-11.95h-43.28v22.52h-21.74v37.35l3.02,3.02,8.93,8.93h45.46v-7.62l7.61,7.62h36.53v-23.9h-24.58ZM124.16,116.23h-29.17v-24.01h29.17v24.01Z"/>
    <polygon class="cls-1" points="318.75 109.1 318.75 152.05 297.26 152.05 297.26 173.55 201.75 173.55 201.75 149.65 294.85 149.65 294.85 109.1 318.75 109.1"/>
    <rect class="cls-1" y="116.23" width="74.11" height="23.9"/>
    <rect class="cls-1" x="173.41" y="152.22" width="18.76" height="18.76" transform="translate(-60.73 176.59) rotate(-45)"/>
    <rect class="cls-1" x="146.88" y="152.22" width="18.76" height="18.76" transform="translate(-68.5 157.82) rotate(-45)"/>
    <rect class="cls-1" x="190.17" y="18.76" width="18.76" height="18.76"/>
    <rect class="cls-1" x="171.41" y="0" width="18.76" height="18.76"/>
  </g>
  <g>
    <path class="cls-2" d="M19.49,171.52l-5.46-8.57c.76-.33,1.5-.81,2.19-1.44,1.42-1.32,2.13-3.24,2.13-5.75,0-2.87-.71-4.97-2.13-6.28-1.42-1.31-3.06-1.97-4.92-1.97H2.15v24.01h4.72l-.03-8.31-.03-4.42h-.02l-.03-6.58h4.49c.71,0,1.28.23,1.74.68.45.46.67,1.42.67,2.87,0,1.09-.22,1.87-.67,2.33-.46.46-1.03.69-1.74.69h-4.43l6.99,12.74h5.69Z"/>
    <path class="cls-2" d="M36.98,158.71c-.49-.76-1.12-1.35-1.88-1.79-.76-.44-1.61-.75-2.53-.92-.92-.17-1.8-.26-2.65-.26-.64,0-1.27.06-1.9.2-.64.13-1.29.3-1.96.49l-.83,4.03c.94-.35,1.72-.59,2.36-.73.63-.15,1.24-.22,1.81-.22.42,0,.85.02,1.29.03.44.02.83.09,1.15.21.33.13.59.32.8.59.2.27.3.65.3,1.15v.38c-.08-.02-.39-.05-.94-.09-.56-.04-1.29-.06-2.19-.06-1.84,0-3.25.44-4.24,1.32-.98.88-1.48,2-1.48,3.36,0,.67.11,1.31.33,1.94.22.63.58,1.18,1.09,1.65.5.48,1.16.86,1.95,1.14.8.28,1.77.42,2.92.42.32,0,.73-.02,1.2-.06l1.39-3.53h-2.39c-.83,0-1.36-.14-1.61-.43-.25-.28-.37-.66-.37-1.12s.13-.84.4-1.13c.27-.3.79-.45,1.55-.45.52,0,1.02.02,1.5.06s.79.08.92.12v2.96l.37,3.57h4.37v-9.97c0-1.13-.24-2.08-.73-2.83Z"/>
    <path class="cls-2" d="M53.66,155.87c-1.05-.08-2.26-.12-3.64-.12s-2.53.21-3.53.64c-.98.42-1.79,1-2.42,1.74-.62.74-1.07,1.59-1.35,2.56-.28.97-.42,1.98-.42,3.03,0,1.23.18,2.32.54,3.29.36.97.88,1.79,1.54,2.46.66.67,1.45,1.19,2.37,1.55.92.36,1.94.54,3.05.54l2.21-3.74c-.52.02-1.07.03-1.67.03-1.22,0-2.09-.35-2.6-1.05-.51-.7-.76-1.76-.76-3.18s.25-2.47.75-3.12,1.35-.96,2.56-.96c.31,0,.62,0,.94,0,.31.02.57.02.79.05v17.34h4.98v-20.76c-1.19-.13-2.31-.24-3.35-.31Z"/>
    <path class="cls-2" d="M61.6,156.01v15.5h4.98v-16.65l-4.98,1.15ZM61.6,150.55v4.83l4.98-1.15v-3.68h-4.98Z"/>
    <path class="cls-2" d="M91.2,157.63c-1.16-1.24-2.92-1.87-5.3-1.87l-1.9,3.77h1.32c1.66,0,2.5,1.05,2.5,3.13v8.86h5.12v-8.46c0-2.38-.57-4.19-1.74-5.43ZM84.01,159.53c-1.56-2.51-3.58-3.77-6.07-3.77l-2.21,3.77h1.2c1.67,0,2.5,1.05,2.5,3.13v8.86h5.12v-8.46c0-1.51-.18-2.69-.54-3.53ZM71.18,157.11v14.41h4.54v-15.87l-4.54,1.46Z"/>
    <path class="cls-2" d="M102.03,162.83l-4.48,4.37,4.48,4.43,4.43-4.43-4.43-4.37Z"/>
    <path class="cls-2" d="M124.7,158.71c-.49-.76-1.12-1.35-1.88-1.79-.76-.44-1.61-.75-2.53-.92-.92-.17-1.8-.26-2.65-.26-.64,0-1.27.06-1.9.2-.64.13-1.29.3-1.96.49l-.83,4.03c.94-.35,1.72-.59,2.36-.73.63-.15,1.24-.22,1.81-.22.42,0,.85.02,1.29.03.44.02.83.09,1.15.21.33.13.59.32.8.59.2.27.3.65.3,1.15v.38c-.08-.02-.39-.05-.94-.09-.56-.04-1.29-.06-2.19-.06-1.84,0-3.25.44-4.24,1.32-.98.88-1.48,2-1.48,3.36,0,.67.11,1.31.33,1.94.22.63.58,1.18,1.09,1.65.5.48,1.16.86,1.95,1.14.8.28,1.77.42,2.92.42.32,0,.73-.02,1.2-.06l1.39-3.53h-2.39c-.83,0-1.36-.14-1.61-.43-.25-.28-.37-.66-.37-1.12s.13-.84.4-1.13c.27-.3.79-.45,1.55-.45.52,0,1.02.02,1.5.06.48.04.79.08.92.12v2.96l.37,3.57h4.37v-9.97c0-1.13-.24-2.08-.73-2.83Z"/>
    <path class="cls-2" d="M130.04,156.01v15.5h4.98v-16.65l-4.98,1.15ZM130.04,150.55v4.83l4.98-1.15v-3.68h-4.98Z"/>
  </g>
</svg>